<svg width="242" height="69" viewBox="0 0 242 69" fill="none" xmlns="http://www.w3.org/2000/svg">
<g filter="url(#filter0_d_29_758)">
<path d="M1 8C1 3.58172 4.58172 0 9 0H233C237.418 0 241 3.58172 241 8V56C241 60.4183 237.418 64 233 64H9.00001C4.58173 64 1 60.4183 1 56V8Z" fill="white"/>
<path d="M55.2634 22.276V26.116H59.1034V37.636H55.2634V41.476H66.7834V37.636H62.9434V26.116H66.7834V22.276H55.2634ZM87.4141 33.796H83.5741V29.956H79.7341V33.796H83.5741V37.636H87.4141V41.476H91.2541V22.276H87.4141V33.796ZM75.8941 26.116V22.276H72.0541V41.476H75.8941V29.956H79.7341V26.116H75.8941ZM96.5322 22.276V26.116H100.372V37.636H96.5322V41.476H108.052V37.636H104.212V26.116H108.052V22.276H96.5322ZM117.163 22.276V26.116H124.843V22.276H117.163ZM124.843 29.956H128.683V26.116H124.843V29.956ZM113.323 37.636H117.163V26.116H113.323V37.636ZM128.683 33.796H124.843V37.636H128.683V33.796ZM124.843 41.476V37.636H117.163V41.476H124.843ZM133.957 22.276V26.116H137.797V37.636H133.957V41.476H145.477V37.636H141.637V26.116H145.477V22.276H133.957ZM162.268 22.276H154.588V26.116H162.268V33.796H154.588V26.116H150.748V41.476H154.588V37.636H162.268V41.476H166.108V26.116H162.268V22.276ZM182.902 22.276H171.382V41.476H175.222V33.796H182.902V29.956H175.222V26.116H182.902V29.956H186.742V26.116H182.902V22.276ZM186.742 41.476V33.796H182.902V41.476H186.742Z" fill="black"/>
</g>
<defs>
<filter id="filter0_d_29_758" x="0" y="0" width="242" height="69" filterUnits="userSpaceOnUse" color-interpolation-filters="sRGB">
<feFlood flood-opacity="0" result="BackgroundImageFix"/>
<feColorMatrix in="SourceAlpha" type="matrix" values="0 0 0 0 0 0 0 0 0 0 0 0 0 0 0 0 0 0 127 0" result="hardAlpha"/>
<feOffset dy="4"/>
<feGaussianBlur stdDeviation="0.5"/>
<feComposite in2="hardAlpha" operator="out"/>
<feColorMatrix type="matrix" values="0 0 0 0 0 0 0 0 0 0 0 0 0 0 0 0 0 0 0.2 0"/>
<feBlend mode="normal" in2="BackgroundImageFix" result="effect1_dropShadow_29_758"/>
<feBlend mode="normal" in="SourceGraphic" in2="effect1_dropShadow_29_758" result="shape"/>
</filter>
</defs>
</svg>
